<?xml version="1.0" standalone="no"?><!DOCTYPE svg PUBLIC "-//W3C//DTD SVG 1.1//EN" "http://www.w3.org/Graphics/SVG/1.1/DTD/svg11.dtd"><svg t="1624241846288" class="icon" viewBox="0 0 1024 1024" version="1.1" xmlns="http://www.w3.org/2000/svg" p-id="1266" xmlns:xlink="http://www.w3.org/1999/xlink" width="200" height="200"><defs><style type="text/css"></style></defs><path d="M512 1024c282.784 0 512-229.216 512-512S794.784 0 512 0 0 229.216 0 512s229.216 512 512 512z" fill="#F3BA2F" p-id="1267"></path><path d="M356.224 451.04l148.384-148.384 148.48 148.48 86.336-86.4-234.816-234.784-234.72 234.72 86.336 86.368zM295.264 512L208.896 425.6 122.56 512l86.336 86.336 86.368-86.368zM356.224 572.96l148.384 148.384 148.48-148.48 86.4 86.336-0.064 0.032-234.816 234.816-234.752-234.72-0.096-0.128 86.464-86.24zM800.32 598.4L886.72 512l-86.336-86.304L714.016 512l86.336 86.336z" fill="#FFFFFF" p-id="1268"></path><path d="M592.192 511.936h0.064l-87.616-87.584-64.768 64.736-7.424 7.424-15.36 15.36-0.128 0.128 0.128 0.128 87.552 87.52 87.616-87.616 0.032-0.032-0.096-0.064z" fill="#FFFFFF" p-id="1269"></path></svg>