<?xml version="1.0" encoding="UTF-8"?>
<svg width="182px" height="38px" viewBox="0 0 182 38" version="1.1" xmlns="http://www.w3.org/2000/svg" xmlns:xlink="http://www.w3.org/1999/xlink">
    <!-- Generator: Sketch 55.2 (78181) - https://sketchapp.com -->
    <title>HDLSwap</title>
    <desc>Created with Sketch.</desc>
    <g id="页面-1" stroke="none" stroke-width="1" fill="none" fill-rule="evenodd">
        <g id="Home" transform="translate(-1668.000000, -202.000000)" fill="#CCCCCC" fill-rule="nonzero">
            <path d="M1668.8,203.44 L1673.16,203.44 L1673.16,215.48 L1688.12,215.48 L1688.12,203.44 L1692.48,203.44 L1692.48,232 L1688.12,232 L1688.12,219.2 L1673.16,219.2 L1673.16,232 L1668.8,232 L1668.8,203.44 Z M1698.08,203.44 L1708.48,203.44 C1713.08,203.44 1716.56,204.72 1718.96,207.32 C1721.2,209.72 1722.32,213.2 1722.32,217.72 C1722.32,222.2 1721.16,225.68 1718.88,228.16 C1716.48,230.72 1713,232 1708.4,232 L1698.08,232 L1698.08,203.44 Z M1702.44,207.16 L1702.44,228.28 L1707.6,228.28 C1711.2,228.28 1713.88,227.4 1715.56,225.68 C1717.2,223.96 1718.04,221.32 1718.04,217.72 C1718.04,214.04 1717.2,211.4 1715.6,209.72 C1713.92,208 1711.28,207.16 1707.68,207.16 L1702.44,207.16 Z M1726.76,203.44 L1731.08,203.44 L1731.08,228.28 L1746.8,228.28 L1746.8,232 L1726.76,232 L1726.76,203.44 Z M1760.4,202.88 C1763.72,202.88 1766.32,203.56 1768.2,205 C1770.2,206.48 1771.32,208.76 1771.6,211.88 L1767.28,211.88 C1766.88,210.04 1766.16,208.68 1765.04,207.88 C1763.92,207.04 1762.32,206.64 1760.16,206.64 C1758.28,206.64 1756.84,206.92 1755.84,207.48 C1754.6,208.12 1754,209.16 1754,210.6 C1754,211.88 1754.68,212.88 1756.12,213.64 C1756.76,214 1758.4,214.6 1761.08,215.4 C1764.92,216.6 1767.44,217.52 1768.56,218.2 C1771,219.68 1772.24,221.72 1772.24,224.36 C1772.24,226.92 1771.24,228.92 1769.24,230.4 C1767.24,231.84 1764.44,232.56 1760.84,232.56 C1757.36,232.56 1754.64,231.84 1752.68,230.48 C1750.32,228.8 1749.04,226.16 1748.8,222.56 L1753.12,222.56 C1753.44,224.8 1754.24,226.44 1755.52,227.4 C1756.68,228.28 1758.44,228.72 1760.84,228.72 C1763,228.72 1764.72,228.32 1766,227.6 C1767.28,226.88 1767.92,225.88 1767.92,224.6 C1767.92,223 1767,221.76 1765.2,220.84 C1764.56,220.52 1762.68,219.88 1759.52,218.92 C1756,217.8 1753.84,217.04 1752.96,216.56 C1750.76,215.24 1749.68,213.32 1749.68,210.84 C1749.68,208.32 1750.72,206.36 1752.84,204.92 C1754.84,203.56 1757.36,202.88 1760.4,202.88 Z M1773.68,211.32 L1778.36,211.32 L1782.72,226.96 L1786.96,211.32 L1790.88,211.32 L1795.12,226.96 L1799.48,211.32 L1804.16,211.32 L1797.16,232 L1793.24,232 L1788.92,216.52 L1784.6,232 L1780.68,232 L1773.68,211.32 Z M1816.08,210.76 C1819.12,210.76 1821.36,211.52 1822.8,213.04 C1824.04,214.36 1824.68,216.28 1824.68,218.8 L1824.68,232 L1820.76,232 L1820.76,229.08 C1819.96,230.12 1818.96,230.96 1817.76,231.56 C1816.4,232.2 1814.8,232.56 1812.96,232.56 C1810.8,232.56 1809.12,232 1807.92,230.92 C1806.6,229.84 1805.96,228.44 1805.96,226.72 C1805.96,224.4 1806.88,222.6 1808.72,221.36 C1810.4,220.16 1812.8,219.56 1815.84,219.48 L1820.48,219.36 L1820.48,218.52 C1820.48,215.64 1818.92,214.2 1815.8,214.2 C1814.48,214.2 1813.4,214.44 1812.6,214.92 C1811.64,215.48 1811.04,216.32 1810.8,217.48 L1806.6,217.12 C1807.04,214.88 1808.16,213.2 1809.92,212.16 C1811.44,211.2 1813.52,210.76 1816.08,210.76 Z M1820.48,222.44 L1816.12,222.56 C1812.24,222.64 1810.32,224 1810.32,226.56 C1810.32,227.36 1810.64,228 1811.32,228.52 C1811.96,229.04 1812.84,229.32 1813.92,229.32 C1815.72,229.32 1817.24,228.76 1818.52,227.68 C1819.8,226.6 1820.48,225.24 1820.48,223.64 L1820.48,222.44 Z M1839.88,210.76 C1842.92,210.76 1845.28,211.84 1847.04,214 C1848.64,216 1849.44,218.56 1849.44,221.76 C1849.44,224.8 1848.64,227.32 1847.08,229.32 C1845.4,231.48 1843.04,232.56 1840.08,232.56 C1837.52,232.56 1835.44,231.36 1833.76,228.96 L1833.76,239.92 L1829.52,239.92 L1829.52,211.32 L1833.48,211.32 L1833.48,213.8 C1834.92,211.76 1837.08,210.76 1839.88,210.76 Z M1839.24,214.2 C1837.4,214.2 1835.96,214.92 1834.96,216.4 C1834.08,217.68 1833.64,219.4 1833.64,221.52 L1833.64,221.88 C1833.64,224.08 1834.16,225.88 1835.28,227.24 C1836.24,228.48 1837.52,229.12 1839.12,229.12 C1841.2,229.12 1842.72,228.44 1843.72,227.08 C1844.6,225.8 1845.08,224.04 1845.08,221.76 C1845.08,219.48 1844.64,217.72 1843.84,216.44 C1842.84,214.92 1841.32,214.2 1839.24,214.2 Z" id="HDLSwap"></path>
        </g>
    </g>
</svg>